Coordinates
version=1
nRows=6
nColumns=63
inDegrees=yes

Units are S.I. units (second, meters, Newtons, ...)
If the header above contains a line with 'inDegrees', this indicates whether rotational values are in degrees (yes) or radians (no).

endheader
time	pelvis_tilt	pelvis_list	pelvis_rotation	pelvis_tx	pelvis_ty	pelvis_tz	hip_flexion_r	hip_adduction_r	hip_rotation_r	knee_angle_r	knee_angle_r_beta	ankle_angle_r	subtalar_angle_r	mtp_angle_r	hip_flexion_l	hip_adduction_l	hip_rotation_l	knee_angle_l	knee_angle_l_beta	ankle_angle_l	subtalar_angle_l	mtp_angle_l	L5_S1_Flex_Ext	L5_S1_Lat_Bending	L5_S1_axial_rotation	L4_L5_Flex_Ext	L4_L5_Lat_Bending	L4_L5_axial_rotation	L3_L4_Flex_Ext	L3_L4_Lat_Bending	L3_L4_axial_rotation	L2_L3_Flex_Ext	L2_L3_Lat_Bending	L2_L3_axial_rotation	L1_L2_Flex_Ext	L1_L2_Lat_Bending	L1_L2_axial_rotation	L1_T12_Flex_Ext	L1_T12_Lat_Bending	L1_T12_axial_rotation	Abs_r3	Abs_r2	Abs_r1	Abs_t1	Abs_t2	neck_flexion	neck_bending	neck_rotation	arm_flex_r	arm_add_r	arm_rot_r	elbow_flex_r	pro_sup_r	wrist_flex_r	wrist_dev_r	arm_flex_l	arm_add_l	arm_rot_l	elbow_flex_l	pro_sup_l	wrist_flex_l	wrist_dev_l
      1.75000000	      1.49139067	    -16.48464642	    100.89976818	      0.26135008	      0.96565586	      0.43057417	     21.29599529	     -3.95002167	    -28.07724664	     10.65733863	      0.18600565	     22.14769508	     18.17829952	      0.00000000	     25.60539460	      4.30120612	     11.05293696	     11.67722442	      0.20380601	     13.18430947	    -17.60548143	      0.00000000	     -0.09621122	     -0.65850898	     -0.97295127	     -0.17867386	     -0.87581695	     -1.03376073	     -0.15806542	     -1.60109874	     -1.03376073	     -0.10995981	     -1.60109874	     -0.85133236	     -0.08934174	     -1.34283152	     -0.79052291	     -0.05497509	     -1.02003042	     -0.72971346	     -0.68722714	     -7.44918533	     -5.41126310	      0.00000000	      0.00000000	     14.69213219	      1.33321193	      1.30656316	     22.03104614	    -14.26033039	     31.79775921	     57.80742421	     89.10402552	    -27.45052308	    -11.53499884	     11.21033695	    -18.33665197	     20.80999150	     65.90140560	     88.00790950	    -39.05519461	     -6.85588131
      1.76666667	      2.00393734	    -16.55845987	    101.25118680	      0.25986832	      0.96549319	      0.42986956	     21.26960945	     -3.56015621	    -28.29722958	     10.42743637	      0.18199310	     22.11680386	     18.17147548	      0.00000000	     25.96833586	      4.01487001	     11.16419266	     12.27957314	      0.21431898	     13.24915439	    -17.61720842	      0.00000000	     -0.08072845	     -0.60771440	     -1.07419337	     -0.14992080	     -0.80826015	     -1.14133046	     -0.13262877	     -1.47759678	     -1.14133046	     -0.09226454	     -1.47759678	     -0.93991920	     -0.07496444	     -1.23925120	     -0.87278212	     -0.04612824	     -0.94134960	     -0.80564503	     -0.57663524	     -6.87458679	     -5.97434128	      0.00000000	      0.00000000	     14.71399344	      1.62784202	      2.05054878	     22.89260516	    -14.15458389	     32.14940834	     57.56268425	     89.04864392	    -26.21692966	     -9.86424958	     10.51222249	    -18.19487736	     19.89936856	     65.92098536	     88.06139965	    -38.43854925	     -7.35215255
      1.78333333	      2.40532296	    -16.63478276	    101.41942804	      0.25880828	      0.96534571	      0.42941028	     21.26022800	     -3.20800747	    -28.37133836	     10.15888645	      0.17730602	     22.04550246	     18.21566433	      0.00000000	     26.28489134	      3.74625498	     11.13809950	     12.84460758	      0.22418069	     13.07735189	    -17.73839809	      0.00000000	     -0.07105203	     -0.57826507	     -1.11195088	     -0.13195072	     -0.76909255	     -1.18144781	     -0.11673138	     -1.40599370	     -1.18144781	     -0.08120536	     -1.40599370	     -0.97295702	     -0.06597891	     -1.17919814	     -0.90346009	     -0.04059913	     -0.89573260	     -0.83396316	     -0.50751753	     -6.54145017	     -6.18433723	      0.00000000	      0.00000000	     14.83022413	      2.12956657	      2.19124215	     23.73868353	    -14.04277274	     32.46787402	     57.16982032	     88.96646999	    -25.54389268	     -8.70358239	     10.09435989	    -18.18507902	     19.42521209	     65.99525967	     88.14445259	    -38.02219748	     -7.54269732
      1.80000000	      2.67085876	    -16.70939957	    101.49561896	      0.25809606	      0.96524147	      0.42914716	     21.32196717	     -2.99333033	    -28.50233408	     10.08018634	      0.17593244	     21.96951282	     18.20628318	      0.00000000	     26.42438887	      3.53408457	     11.00982880	     13.07358235	      0.22817706	     12.63363429	    -17.75283541	      0.00000000	     -0.06458074	     -0.56473278	     -1.09660610	     -0.11993289	     -0.75109460	     -1.16514398	     -0.10609969	     -1.37309129	     -1.16514398	     -0.07380932	     -1.37309129	     -0.95953034	     -0.05996967	     -1.15160309	     -0.89099246	     -0.03690143	     -0.87477108	     -0.82245458	     -0.46129374	     -6.38837019	     -6.09899415	      0.00000000	      0.00000000	     14.94114684	      2.43253137	      2.11594654	     24.34177994	    -13.84626809	     32.39859650	     56.70116518	     88.88764383	    -25.43481202	     -8.22660226	     10.02432814	    -18.22840575	     19.38833783	     65.97696271	     88.21239233	    -37.78111144	     -7.57461240
      1.81666667	      2.91710335	    -16.73172744	    101.58224039	      0.25743802	      0.96487688	      0.42921873	     21.28347376	     -2.76961455	    -28.65271033	      9.87518961	      0.17235457	     21.75443061	     18.25045319	      0.00000000	     26.66555137	      3.36051312	     10.86659236	     13.57757753	      0.23697343	     12.54509240	    -17.79101672	      0.00000000	     -0.07087661	     -0.55659510	     -1.08251448	     -0.13162494	     -0.74027148	     -1.15017163	     -0.11644317	     -1.35330532	     -1.15017163	     -0.08100487	     -1.35330532	     -0.94720017	     -0.06581602	     -1.13500872	     -0.87954301	     -0.04049889	     -0.86216580	     -0.81188586	     -0.50626450	     -6.29631504	     -6.02062077	      0.00000000	      0.00000000	     15.26397547	      3.13313542	      1.93121859	     25.03009326	    -13.93675707	     32.78819486	     56.56416090	     88.84661375	    -25.20446550	     -7.16945502	      9.93190968	    -18.18050506	     18.86886692	     66.26023360	     88.30912388	    -36.46162321	     -7.50148767
      1.83333333	      2.96238274	    -16.79913720	    101.44929695	      0.25732303	      0.96446130	      0.42937650	     21.37649709	     -2.72523363	    -28.75019149	      9.91849622	      0.17311042	     21.56214505	     18.25800365	      0.00000000	     26.79141856	      3.26072305	     10.46476646	     13.75549069	      0.24007860	     12.39238999	    -17.74316925	      0.00000000	     -0.07551419	     -0.57214086	     -1.01385389	     -0.14023741	     -0.76094734	     -1.07721976	     -0.12406227	     -1.39110328	     -1.07721976	     -0.08630517	     -1.39110328	     -0.88712215	     -0.07012248	     -1.16670964	     -0.82375628	     -0.04314881	     -0.88624619	     -0.76039042	     -0.53939033	     -6.47217182	     -5.63875118	      0.00000000	      0.00000000	     15.65186735	      3.43519809	      1.52177926	     25.44860699	    -13.91776457	     32.99480983	     56.42059115	     88.81963198	    -25.83424119	     -6.85793193	     10.05115973	    -18.19034043	     18.42332368	     66.59053872	     88.42040329	    -34.58348388	     -6.96122874
